
<?xml version="1.0" encoding="UTF-8" standalone="no"?>
<svg width="45px" height="360px" viewBox="0 0 45 360" version="1.1" xmlns="http://www.w3.org/2000/svg" xmlns:xlink="http://www.w3.org/1999/xlink">
    <!-- Generator: Sketch 39.1 (31720) - http://www.bohemiancoding.com/sketch -->
    <title>DrawButtons</title>
    <desc>Created with Sketch.</desc>
    <defs></defs>
    <g id="Page-1" stroke="none" stroke-width="1" fill="none" fill-rule="evenodd">
        <g id="DrawButtons">
            <ellipse id="Oval" stroke="#000000" stroke-width="0.5" fill="#000000" cx="38.2788462" cy="46.9745763" rx="1.47115385" ry="1.47457627"></ellipse>
            <ellipse id="Oval" stroke="#000000" stroke-width="0.5" fill="#000000" cx="28.4711538" cy="58.5254237" rx="1.47115385" ry="1.47457627"></ellipse>
            <polygon id="Triangle" fill="#D0011B" transform="translate(33.392042, 72.664454) rotate(217.000000) translate(-33.392042, -72.664454) " points="33.3920418 65.6502098 37.1897339 79.6786972 29.5943498 79.6786972"></polygon>
            <path d="M27.3603161,80.5647246 C27.5099165,80.6465091 27.6870722,80.6874007 27.8917886,80.6874007 C28.1411226,80.6874007 28.3825794,80.6474178 28.616166,80.5674508 C29.0098513,80.4347783 29.206691,80.2175984 29.206691,79.9159048 L29.206691,79.5206154 C29.1200803,79.5587815 29.0085378,79.590586 28.8720602,79.6160301 C28.7355826,79.6414741 28.6017316,79.6596482 28.4705031,79.6705528 L28.0413883,79.7087186 C27.7841805,79.7323452 27.5912776,79.769602 27.4626737,79.8204901 C27.2448345,79.9059094 27.1359165,80.0422147 27.1359165,80.2294102 C27.1359165,80.3711698 27.2107156,80.4829402 27.3603161,80.5647246 L27.3603161,80.5647246 Z M28.852376,79.2370975 C29.0150993,79.222558 29.1240172,79.1753055 29.1791332,79.0953385 C29.210628,79.0517202 29.2263752,78.9890197 29.2263752,78.9072353 C29.2263752,78.7400316 29.1404219,78.6187198 28.9685126,78.5432964 C28.7966033,78.467873 28.5505537,78.4301619 28.2303563,78.4301619 C27.8602921,78.4301619 27.5978391,78.4992232 27.4429896,78.637348 C27.3563788,78.7136802 27.2999514,78.8272679 27.2737057,78.9781148 L26.6123177,78.9781148 C26.6254405,78.6182633 26.7940665,78.3679159 27.1182008,78.2270649 C27.442335,78.086214 27.8182989,78.0157895 28.2461036,78.0157895 C28.7421471,78.0157895 29.1450124,78.0812161 29.4547115,78.2120712 C29.7617861,78.3429263 29.9153211,78.5464755 29.9153211,78.8227251 L29.9153211,80.5047497 C29.9153211,80.5556378 29.9304121,80.5965294 29.9605947,80.6274257 C29.9907772,80.658322 30.0544221,80.67377 30.1515311,80.67377 C30.1830259,80.67377 30.2184571,80.6724069 30.2578256,80.6696808 C30.2971941,80.6669546 30.3391866,80.6628655 30.3838043,80.6574132 L30.3838043,81.019989 C30.2735724,81.0417982 30.1895874,81.0554287 30.1318469,81.060881 C30.0741064,81.0663333 29.9953705,81.0690594 29.8956369,81.0690594 C29.651552,81.0690594 29.4743963,81.009085 29.3641644,80.8891346 C29.3064239,80.8255244 29.2657437,80.7355629 29.2421225,80.6192473 C29.0977712,80.7501024 28.8904334,80.8636902 28.6201028,80.960014 C28.3497722,81.0563379 28.0518881,81.1044991 27.7264416,81.1044991 C27.3353808,81.1044991 27.0158444,81.0222616 26.7678226,80.857784 C26.5198008,80.6933065 26.3957918,80.4874854 26.3957918,80.2403147 C26.3957918,79.9695174 26.5178324,79.7596072 26.7619173,79.6105778 C27.0060023,79.4615484 27.3261949,79.3697695 27.7225048,79.3352383 L28.852376,79.2370975 Z M31.0215713,76.9880371 L31.7105172,76.9880371 L31.7105172,78.4410664 C31.8653668,78.3011242 32.0503961,78.1943517 32.2656108,78.1207457 C32.4808254,78.0471397 32.7144085,78.0103373 32.9663671,78.0103373 C33.4912809,78.0103373 33.9171108,78.1352838 34.2438697,78.3851807 C34.5706285,78.6350775 34.7340054,79.0035563 34.7340054,79.4906279 C34.7340054,79.9522556 34.5725969,80.3357279 34.2497749,80.6410564 C33.9269529,80.9463849 33.4794707,81.0990469 32.9073146,81.0990469 C32.5871172,81.0990469 32.3167907,81.0454334 32.0963269,80.938205 C31.9650985,80.8745949 31.8246861,80.7728202 31.6750857,80.632878 L31.6750857,81.0063583 L31.0215713,81.0063583 L31.0215713,76.9880371 Z M33.7242076,80.3493601 C33.9144889,80.138538 34.0096281,79.8604751 34.0096281,79.5151631 C34.0096281,79.2080172 33.9144889,78.9535806 33.7242076,78.7518457 C33.5339264,78.5501108 33.2537579,78.4492448 32.8836936,78.4492448 C32.5608717,78.4492448 32.2780786,78.5319367 32.035306,78.697323 C31.7925334,78.8627093 31.6711489,79.1353199 31.6711489,79.5151631 C31.6711489,79.7895953 31.7210149,80.0122273 31.8207486,80.1830659 C32.007093,80.5047513 32.3548431,80.6655916 32.8640095,80.6655916 C33.2471965,80.6655916 33.5339264,80.5601821 33.7242076,80.3493601 L33.7242076,80.3493601 Z M35.9819817,80.0903774 C36.0029783,80.2539462 36.0620302,80.3793471 36.1591392,80.4665838 C36.3376099,80.6247004 36.6473044,80.7037575 37.088232,80.7037575 C37.3506888,80.7037575 37.5816474,80.6642289 37.7811147,80.5851706 C37.9805819,80.5061124 38.080314,80.3838919 38.080314,80.2185056 C38.080314,80.0931029 38.0002659,79.9976891 37.8401672,79.9322616 C37.737809,79.8922781 37.5357202,79.8459343 37.2338948,79.7932288 L36.6709276,79.695088 C36.3113617,79.6332953 36.0462842,79.5642339 35.8756872,79.4879018 C35.5712372,79.3552293 35.4190145,79.1716714 35.4190145,78.9372228 C35.4190145,78.6609732 35.5627075,78.4374324 35.8500978,78.2665939 C36.1374881,78.0957553 36.52395,78.0103373 37.0094953,78.0103373 C37.644641,78.0103373 38.1026214,78.139373 38.3834502,78.3974483 C38.5592963,78.5610171 38.6445935,78.7373053 38.6393444,78.9263182 L37.9700827,78.9263182 C37.9569598,78.8154549 37.9005325,78.714589 37.8007988,78.6237174 C37.6380756,78.4946797 37.3559387,78.4301619 36.9543796,78.4301619 C36.6866736,78.4301619 36.4839287,78.4656013 36.3461388,78.5364811 C36.208349,78.6073609 36.1394551,78.7009573 36.1394551,78.8172729 C36.1394551,78.9444931 36.2300013,79.0462677 36.4110966,79.1225999 C36.5160793,79.1680357 36.6709266,79.2080185 36.8756429,79.2425497 L37.3441261,79.3216076 C37.8532925,79.4070269 38.1944813,79.4897188 38.3677029,79.5696858 C38.6432826,79.6950886 38.7810704,79.892277 38.7810704,80.1612568 C38.7810704,80.4211496 38.6386897,80.645599 38.353924,80.8346119 C38.0691582,81.0236248 37.6354547,81.1181298 37.0528005,81.1181298 C36.4255285,81.1181298 35.9813269,81.0195356 35.7201823,80.8223443 C35.4590377,80.6251529 35.3192815,80.3811664 35.3009095,80.0903774 L35.9819817,80.0903774 Z" id="abs" fill="#000000"></path>
            <path d="M30.0207483,89.25 L30.0207483,90.0048109 L27.8319728,90.0048109 L27.8319728,95.5860982 L26.9387755,95.5860982 L26.9387755,90.0048109 L24.75,90.0048109 L24.75,89.25 L30.0207483,89.25 Z M32.664966,91.0938952 C32.9803871,91.2477336 33.2206341,91.4468579 33.3857143,91.6912741 C33.5448988,91.9241883 33.6510201,92.1959175 33.7040816,92.5064698 C33.7512474,92.7192557 33.7748299,93.0585577 33.7748299,93.5243862 L30.3037415,93.5243862 C30.3184808,93.9930902 30.4319717,94.3690541 30.6442177,94.6522893 C30.8564636,94.9355245 31.1851452,95.07714 31.6302721,95.07714 C32.0459204,95.07714 32.3775498,94.943432 32.6251701,94.6760119 C32.7666674,94.5207358 32.8668931,94.3410207 32.9258503,94.1368613 L33.7085034,94.1368613 C33.6878684,94.3065149 33.6193316,94.4955752 33.5028912,94.7040478 C33.3864507,94.9125204 33.2560098,95.0828903 33.1115646,95.2151626 C32.8698401,95.4452013 32.5706367,95.6004752 32.2139456,95.6809887 C32.0223346,95.7269965 31.8056701,95.75 31.5639456,95.75 C30.9743735,95.75 30.4747186,95.5408116 30.064966,95.1224287 C29.6552134,94.7040457 29.4503401,94.1181745 29.4503401,93.3647976 C29.4503401,92.6229226 29.6566873,92.0205177 30.0693878,91.5575647 C30.4820882,91.0946117 31.0215386,90.8631387 31.6877551,90.8631387 C32.0238112,90.8631387 32.3495449,90.9400567 32.664966,91.0938952 L32.664966,91.0938952 Z M32.9568027,92.9075979 C32.9243763,92.5711662 32.8492069,92.3023124 32.7312925,92.1010285 C32.5131508,91.7272156 32.1490955,91.5403119 31.6391156,91.5403119 C31.2735809,91.5403119 30.967008,91.6689879 30.7193878,91.9263437 C30.4717675,92.1836996 30.3405896,92.510781 30.3258503,92.9075979 L32.9568027,92.9075979 Z M34.3010204,90.9666556 L35.3312925,90.9666556 L36.4190476,92.5927339 L37.520068,90.9666556 L38.4884354,90.9882216 L36.8921769,93.2181486 L38.5591837,95.5860982 L37.5421769,95.5860982 L36.3659864,93.8521898 L35.2251701,95.5860982 L34.2170068,95.5860982 L35.8840136,93.2181486 L34.3010204,90.9666556 Z M39.4391156,89.6770073 L40.2438776,89.6770073 L40.2438776,90.9666556 L41,90.9666556 L41,91.6006967 L40.2438776,91.6006967 L40.2438776,94.6156271 C40.2438776,94.7766542 40.2998861,94.8844832 40.4119048,94.9391175 C40.4738098,94.9707478 40.5769834,94.9865627 40.7214286,94.9865627 C40.7597508,94.9865627 40.8010202,94.9858438 40.8452381,94.9844061 C40.889456,94.9829684 40.9410428,94.9793741 41,94.9736231 L41,95.5860982 C40.9086163,95.6119776 40.8135492,95.6306679 40.7147959,95.6421699 C40.6160426,95.6536718 40.5091842,95.6594227 40.3942177,95.6594227 C40.0227873,95.6594227 39.770749,95.5666897 39.6380952,95.381221 C39.5054415,95.1957522 39.4391156,94.954934 39.4391156,94.6587591 L39.4391156,91.6006967 L38.7979592,91.6006967 L38.7979592,90.9666556 L39.4391156,90.9666556 L39.4391156,89.6770073 Z" id="Text" fill="#000000"></path>
            <polygon id="Up" fill="#000000" transform="translate(11.240939, 134.511816) scale(1, -1) rotate(218.000000) translate(-11.240939, -134.511816) " points="11.2409392 127.462501 15.0643784 141.561131 7.41750008 141.561131"></polygon>
            <polygon id="Triangle-2" fill="#000000" transform="translate(29.498020, 130.871273) rotate(319.000000) translate(-29.498020, -130.871273) " points="29.49802 128.962737 30.8491547 132.779808 28.1468853 132.779808"></polygon>
            <polygon id="Rectangle" fill="#000000" transform="translate(32.068949, 133.828788) rotate(319.000000) translate(-32.068949, -133.828788) " points="29.8170581 135.090884 30.7057833 132.566693 33.4321152 132.566693 34.3208404 135.090884"></polygon>
            <polygon id="Rectangle" fill="#000000" transform="translate(34.212717, 136.301089) rotate(319.000000) translate(-34.212717, -136.301089) " points="36.454821 135.038994 37.3162741 137.563185 31.1091602 137.563185 31.9707336 135.038994"></polygon>
            <polygon id="Rectangle" fill="#000000" transform="translate(36.345608, 138.782846) rotate(319.000000) translate(-36.345608, -138.782846) " points="32.3597605 140.044942 33.257637 137.52075 39.4335787 137.52075 40.3314552 140.044942"></polygon>
            <polygon id="Cyclopropane" stroke="#000000" stroke-width="0.75" points="11.6175001 152.212501 16.5675002 162.112502 6.66750008 162.112502"></polygon>
            <polygon id="Cylopentane" stroke="#000000" stroke-width="0.75" points="11.9937501 172.287502 18.5525002 177.108868 16.0472806 184.910002 7.94021966 184.910002 5.43500006 177.108868"></polygon>
            <polygon id="Cyclobutane" stroke="#000000" stroke-width="0.75" transform="translate(33.308750, 156.551252) rotate(-45.000000) translate(-33.308750, -156.551252) " points="33.3087501 150.240001 40.205028 157.217548 33.3087501 164.195094 26.4124721 157.217548"></polygon>
            <polygon id="Cyclohexane" stroke="#000000" stroke-width="0.75" points="33.75 172 39.75 175.4375 39.75 182.3125 33.75 185.75 27.75 182.3125 27.75 175.4375"></polygon>
            <path d="M14.6701255,238.475634 C15.3515238,239.126059 15.729827,239.864967 15.8050463,240.69238 L14.5174753,240.69238 C14.3714614,240.064077 14.080544,239.56631 13.6447146,239.199063 C13.2088851,238.831816 12.5971844,238.648195 11.8095941,238.648195 C10.8494419,238.648195 10.074031,238.98557 9.4833383,239.660332 C8.89264557,240.335093 8.59730364,241.369343 8.59730364,242.763112 C8.59730364,243.904676 8.86388568,244.830523 9.39705777,245.540682 C9.93022986,246.25084 10.7255514,246.605914 11.7830462,246.605914 C12.7564725,246.605914 13.4975927,246.232036 14.0064291,245.484267 C14.2763336,245.090472 14.4776529,244.572794 14.6103928,243.931218 L15.8979638,243.931218 C15.7829225,244.95774 15.402407,245.818324 14.756406,246.512997 C13.9820897,247.349258 12.9378845,247.767383 11.6237591,247.767383 C10.491045,247.767383 9.53975634,247.424477 8.7698647,246.738654 C7.7566165,245.831597 7.25,244.431212 7.25,242.537455 C7.25,241.099439 7.63051545,239.920284 8.39155776,238.999954 C9.21454538,237.99998 10.3494548,237.5 11.7963202,237.5 C13.0308016,237.5 13.9887271,237.825208 14.6701255,238.475634 L14.6701255,238.475634 Z" id="C" fill="#000000" transform="translate(11.573982, 242.633691) scale(1, -1) translate(-11.573982, -242.633691) "></path>
            <path d="M13.0533591,48.3181175 C16.1607398,48.3181175 18.7862102,49.8522518 18.7862102,51.6679208 C18.7862102,52.107673 18.6288478,52.5315646 18.3510238,52.9206971 L19.4801164,53.2882111 C19.7548149,52.7856523 19.9117307,52.2415874 19.9117307,51.6679208 C19.9117307,49.0904833 16.8990736,47.071523 13.0533591,47.071523 C9.20796357,47.071523 6.19498755,49.09066 6.19498755,51.6679208 C6.19498755,52.6187803 6.60756147,53.4921736 7.31731873,54.2172755 C7.09562723,54.3763055 6.87859217,54.5882512 6.71657335,54.887872 C6.38319091,55.5042456 6.37658897,56.2686988 6.69600206,57.1609906 C6.99685315,58.001391 6.92324303,58.3119269 6.87757158,58.4058189 C6.77060088,58.6291391 6.29934298,58.7418943 5.84470158,58.8507638 C5.73352095,58.8775396 5.62017156,58.9048453 5.50720489,58.9345177 C5.20472723,59.0136441 5.01754446,59.3486951 5.08844364,59.6844525 C5.14910502,59.9709679 5.38071539,60.1647217 5.63573557,60.1647217 C5.67847282,60.1647217 5.72213498,60.1590698 5.76547821,60.1482253 C5.87136452,60.1202837 5.97776114,60.094603 6.08224414,60.069558 C6.75551527,59.9083379 7.51808812,59.7254287 7.87082988,58.9928028 C8.14147786,58.4310758 8.10030339,57.7029007 7.7422992,56.702022 C7.55970909,56.1921157 7.5386594,55.7989916 7.68020262,55.5327877 C7.83855369,55.234262 8.19496321,55.101584 8.3879187,55.0570753 C9.52667501,55.7600995 11.0302926,56.1999577 12.7123542,56.253474 L12.3773452,54.9909836 C9.57486604,54.7875863 7.32031672,53.3501699 7.32031672,51.6680268 C7.3203199,49.8523578 9.94578709,48.3182235 13.0531678,48.3182235" id="Shape" fill="#000000"></path>
            <path d="M20.6239119,54.9597922 L13.5419671,52.6541752 C13.5064059,52.6422356 13.4703981,52.6371489 13.4343904,52.6371489 C13.335106,52.6371489 13.2379904,52.6804918 13.1654009,52.760784 C13.0666587,52.8695828 13.0295985,53.0297079 13.0690826,53.1772221 L15.1507693,61.0227489 C15.1935066,61.1856999 15.3214632,61.3047075 15.4742648,61.3230055 C15.4887125,61.3246657 15.5026819,61.3252662 15.516428,61.3252662 C15.6538569,61.3252662 15.781367,61.242678 15.8493639,61.1075979 L17.5741627,57.6444036 L20.7006795,55.7337123 C20.8354294,55.6516893 20.9121013,55.4881731 20.8952296,55.3194642 C20.8788364,55.1503668 20.7716743,55.0084338 20.6240714,54.9600042" id="Shape" fill="#000000"></path>
            <path d="M11.0370957,17.2831166 C10.8553875,17.2165262 10.7166045,17.1139663 10.6257504,16.9755707 C10.5500386,16.8603078 10.4743268,16.6475663 10.4743268,16.5553026 C10.4743268,16.5117113 10.3884763,16.5091707 8.76574273,16.5040895 L7.05465683,16.4964677 L6.91587387,16.4298773 C6.71401972,16.335073 6.62566739,16.2453498 6.53231149,16.0532005 L6.44909438,15.8815097 L6.44158904,14.9281175 C6.43395203,13.8594624 6.43395203,13.8569218 6.60815493,13.7210668 C6.6915037,13.657017 6.71915496,13.6518021 6.9715714,13.6441803 L7.24413375,13.6338842 L7.24913731,9.2361119 L7.25664265,4.83579901 L7.32221563,4.69486277 C7.41557153,4.48987676 7.50392386,4.40015359 7.69313744,4.30534924 L7.86220511,4.22084098 L12.0894234,4.22084098 L16.31651,4.22084098 L16.4855777,4.30534924 C16.6747913,4.40015359 16.7631436,4.48987676 16.8564995,4.69486277 L16.9220725,4.83579901 L16.9295778,9.2361119 L16.9345814,13.6338842 L17.2071437,13.6441803 C17.4595602,13.6518021 17.4873431,13.657017 17.5705602,13.7210668 C17.7446314,13.8569218 17.7446314,13.8594624 17.7371261,14.9281175 L17.7296207,15.8815097 L17.6464036,16.0532005 C17.5530477,16.2453498 17.4646954,16.335073 17.2628412,16.4298773 L17.1240583,16.4964677 L15.4181076,16.5040895 L13.7096552,16.511845 L13.6945128,16.6194861 C13.6540893,16.8885218 13.4750145,17.1320179 13.2276017,17.2499551 L13.0863169,17.3165455 L12.1273451,17.3216267 C11.2540922,17.3292484 11.1556011,17.3241673 11.0370957,17.2831166 L11.0370957,17.2831166 Z M12.7102599,16.4425803 C12.8616834,16.3298581 12.8843311,16.2708895 12.8919681,15.9684248 L12.9021069,15.6890929 L14.7897658,15.6840117 C16.6522752,15.6763899 16.6800582,15.6763899 16.7481329,15.6225026 C16.9146988,15.4969436 16.9223358,15.4738108 16.9298411,14.943361 L16.9374782,14.4590431 L12.0894234,14.4590431 L7.2415003,14.4590431 L7.24913731,14.943361 C7.25664265,15.4738108 7.26427967,15.4969436 7.43084555,15.6225026 C7.4989203,15.6762562 7.52670323,15.6762562 9.39171444,15.6840117 L11.2818751,15.6890929 L11.2818751,15.932589 C11.2818751,16.1914624 11.3045228,16.2811856 11.3903734,16.3785305 C11.5013734,16.4990083 11.559441,16.5091707 12.1197081,16.5015489 C12.6017616,16.496334 12.6471887,16.4912528 12.7102599,16.4425803 L12.7102599,16.4425803 Z M16.1222929,9.46396328 C16.1147875,5.29163548 16.1147875,5.28655429 16.0617235,5.21742333 C16.0339405,5.17891324 15.9783747,5.12261897 15.9405846,5.09440498 C15.8725099,5.04065131 15.8698764,5.04065131 12.0895551,5.04065131 C8.30910203,5.04065131 8.30660025,5.04065131 8.23839383,5.09440498 C8.20047211,5.12261897 8.14503793,5.17904695 8.117255,5.21742333 C8.06419093,5.28655429 8.06419093,5.2917692 8.05668559,9.46396328 L8.05168203,13.6388317 L12.0894234,13.6388317 L16.1272964,13.6388317 L16.1222929,9.46396328 L16.1222929,9.46396328 Z" id="Shape" fill="#000000" transform="translate(12.089329, 10.772720) scale(1, -1) translate(-12.089329, -10.772720) "></path>
            <path d="M10.7064657,14.424925 C10.6610386,14.3992516 10.5929639,14.3402831 10.5550422,14.2916106 L10.4868357,14.2018874 L10.4793304,12.2438899 C10.4716934,10.0604479 10.4641881,10.1782514 10.6458963,10.0373151 C10.7746721,9.93729585 10.9815298,9.93729585 11.1103057,10.0373151 C11.2895121,10.1782514 11.2818751,10.0655291 11.2818751,12.2105947 C11.2818751,14.3505792 11.2893805,14.2454787 11.1128075,14.3813337 C11.0043092,14.4659757 10.8251027,14.4864342 10.7064657,14.424925 L10.7064657,14.424925 Z" id="Shape" fill="#000000" transform="translate(10.879099, 12.211423) scale(1, -1) translate(-10.879099, -12.211423) "></path>
            <path d="M13.1367475,14.4314111 C13.0433916,14.3878199 12.9600429,14.2980967 12.9247546,14.2032923 C12.904477,14.1546199 12.8969717,13.5087735 12.8969717,12.2067847 C12.8969717,10.0668003 12.8893347,10.1796563 13.0685411,10.0385863 C13.197317,9.93856707 13.4041747,9.93856707 13.5329505,10.0385863 C13.712157,10.1795226 13.7045199,10.0668003 13.7045199,12.2118659 C13.7045199,14.3518504 13.7120253,14.2467499 13.5354523,14.382605 C13.4319576,14.462032 13.2502494,14.4851648 13.1367475,14.4314111 L13.1367475,14.4314111 Z" id="Shape" fill="#000000" transform="translate(13.300746, 12.212058) scale(1, -1) translate(-13.300746, -12.212058) "></path>
            <path d="M33.3130702,5.52700183 C31.2081944,5.52700183 29.3453777,7.12246886 28.1718835,9.57887729 L26.0230239,6.20099451 L26.0230239,16.9848773 L32.8846223,16.9848773 L30.5502315,13.3160824 C31.1704825,10.3594451 32.9394883,8.22297253 35.0280409,8.22297253 C37.6346442,8.22297253 39.7453899,11.5429341 39.7453899,15.6368919 C39.7453899,10.0527363 36.8657432,5.52700183 33.3130702,5.52700183 L33.3130702,5.52700183 Z" id="Shape" fill="#000000"></path>
            <path d="M37.4122104,34.6151611 C37.4956904,34.5841185 37.6091499,34.6096647 37.691047,34.6776956 C37.7316267,34.7120222 37.7596487,34.752502 37.7724512,34.7925324 C37.7854045,34.8329776 37.782838,34.8742525 37.7627128,34.908579 L33.5538575,39.5780308 C33.4956599,39.6248367 33.4052015,39.652215 33.3091459,39.652215 C33.2130903,39.652215 33.1222987,39.6245947 33.0641009,39.5780308 L28.8561662,34.9083716 C28.8153346,34.8403061 28.8452787,34.7463142 28.9279085,34.6772462 C29.0091752,34.6094227 29.1227144,34.5838766 29.2061302,34.6151265 L31.8851402,35.5540086 L32.5067228,28.436688 L30.6153708,29.3756738 C30.5466594,29.40682 30.4834422,29.3812739 30.4611437,29.3133466 C30.4506303,29.2790201 30.4514336,29.2384366 30.4617541,29.1984062 C30.4721899,29.1578573 30.4926142,29.1166861 30.5210463,29.0823595 L33.2396927,24.4129423 C33.2566995,24.3661365 33.2823661,24.3387582 33.3093481,24.3387582 C33.3363302,24.3387582 33.3620926,24.3663439 33.3790977,24.4129423 L36.0974055,29.0826015 C36.1541737,29.1505633 36.178823,29.2447281 36.1572025,29.3136232 C36.1353762,29.3815504 36.072051,29.4070966 36.003365,29.3759503 L34.1118184,28.4367226 L34.7331781,35.5542506 L37.4122104,34.6151611 Z" id="Shape" fill="#000000" transform="translate(33.309228, 31.995487) rotate(37.000000) translate(-33.309228, -31.995487) "></path>
            <path d="M11.9349145,100.001046 L14.1858198,95.6310641 L9.04089323,95.6310641 L6.78998783,100.001046 L11.9349145,100.001046 L11.9349145,100.001046 Z M18.7211263,87.7446127 C18.7881175,88.002563 18.8093314,88.2737902 18.7847679,88.5582942 C18.7602045,88.8427982 18.6920967,89.0912651 18.5804447,89.3036947 L12.5780303,100.956979 C12.4083192,101.290797 12.1939472,101.457706 11.9349145,101.457706 L6.78998783,101.457706 C6.62027671,101.457706 6.46508036,101.379942 6.32439877,101.224413 C6.18371718,101.068884 6.07764773,100.862145 6.00619042,100.604194 C5.93919919,100.346244 5.9179853,100.075017 5.94254875,99.7905129 C5.9671122,99.5060088 6.03521995,99.257542 6.14687201,99.0451123 L12.1492864,87.3918277 C12.3189975,87.0580097 12.5333695,86.8911007 12.7924022,86.8911007 L17.9373288,86.8911007 C18.10704,86.8911007 18.2622363,86.9688651 18.4029179,87.124394 C18.5435995,87.2799228 18.6496689,87.4866624 18.7211263,87.7446127 L18.7211263,87.7446127 Z" id="Shape" fill="#000000"></path>
            <path d="M12.3880779,81.5982758 L12.3880779,71.4705757" id="Line" stroke="#000000" stroke-width="1.23750001" stroke-linecap="square"></path>
            <path d="M21.1421122,66.3300006 L12.4639917,71.3938507" id="Line" stroke="#000000" stroke-width="1.23750001" stroke-linecap="square"></path>
            <path d="M3.20250005,66.7903506 L12.1309471,71.3882303" id="Line" stroke="#000000" stroke-width="1.23750001" stroke-linecap="square"></path>
            <path d="M9.3829563,77.704482 L10.0910903,77.704482 L10.0910903,78.4525508 L9.3829563,78.4525508 L9.3829563,77.704482 Z M8.61788687,73.5739197 C8.90730993,73.2586263 9.3046676,73.100982 9.8099718,73.100982 C10.2773189,73.100982 10.6515468,73.2358488 10.9326667,73.5055865 C11.2137867,73.7753241 11.3543445,74.1199838 11.3543445,74.5395757 C11.3543445,74.7937286 11.3027473,74.9999249 11.1995514,75.158171 C11.0963555,75.3164171 10.8881875,75.5489875 10.5750412,75.855889 C10.3472985,76.0788722 10.1996238,76.2676857 10.1320127,76.4223353 C10.0644015,76.5769849 10.0305965,76.8053594 10.0305965,77.1074656 L9.39719015,77.1074656 C9.39719015,76.764599 9.43751899,76.4882719 9.51817787,76.2784759 C9.59883676,76.06868 9.77557196,75.8283173 10.0483888,75.5573808 L10.3330658,75.2732585 C10.4184693,75.1917378 10.4872656,75.1066219 10.5394566,75.0179081 C10.6343494,74.8620597 10.6817951,74.7002195 10.6817951,74.5323827 C10.6817951,74.2974113 10.6124058,74.0936125 10.473625,73.9209804 C10.3348443,73.7483483 10.1053258,73.6620335 9.78506256,73.6620335 C9.38888509,73.6620335 9.11488622,73.8106867 8.96305773,74.1079976 C8.8776542,74.2734367 8.82902237,74.5120011 8.81716076,74.823698 L8.18375444,74.823698 C8.18375444,74.3058016 8.3284638,73.889213 8.61788687,73.5739197 L8.61788687,73.5739197 Z" id="?" fill="#D0011B"></path>
            <polygon id="*" fill="#D0011B" points="15.6078933 71.0210151 15.6078933 71.8230312 16.3836382 71.5496983 16.5259767 71.9489081 15.7502318 72.2042585 16.2306243 72.8803976 15.8783365 73.135748 15.4121779 72.4344335 14.9424608 73.135748 14.5794977 72.8803976 15.067007 72.2042585 14.2841453 71.9489081 14.4264838 71.5496983 15.1951117 71.8302241 15.1951117 71.0210151"></polygon>
            <ellipse id="Oval-2" stroke="#979797" stroke-width="0.5" fill="#000000" cx="12.3781918" cy="32.0357312" rx="3.04453522" ry="2.98927566"></ellipse>
            <path d="M12.1583452,39.3219678 L12.1583452,35.9592783" id="Line" stroke="#000000" stroke-width="0.742500007" stroke-linecap="square" fill="#D8D8D8"></path>
            <path d="M16.3009584,31.8334378 L19.6967861,31.8334378" id="Line" stroke="#000000" stroke-width="0.742500007" stroke-linecap="square" fill="#D8D8D8"></path>
            <path d="M8.3383278,31.8334378 L4.94250005,31.8334378" id="Line" stroke="#000000" stroke-width="0.742500007" stroke-linecap="square" fill="#D8D8D8"></path>
            <path d="M12.1583452,28.1121841 L12.1583452,24.7494946" id="Line" stroke="#000000" stroke-width="0.742500007" stroke-linecap="square" fill="#D8D8D8"></path>
            <path d="M7.14629565,37.2182466 L9.54750848,34.8606168" id="Line" stroke="#000000" stroke-width="0.742500007" stroke-linecap="square" fill="#D8D8D8"></path>
            <path d="M15.1796008,34.7743877 L17.5808137,37.1320175" id="Line" stroke="#000000" stroke-width="0.742500007" stroke-linecap="square" fill="#D8D8D8"></path>
            <path d="M9.55963432,29.2564259 L7.1584215,26.8987961" id="Line" stroke="#000000" stroke-width="0.742500007" stroke-linecap="square" fill="#D8D8D8"></path>
            <path d="M15.167475,29.2851689 L17.5686878,26.9275391" id="Line" stroke="#000000" stroke-width="0.742500007" stroke-linecap="square" fill="#D8D8D8"></path>
            <path d="M7.04625008,110.013751 L16.8225002,120.285001" id="Bond" stroke="#000000" stroke-width="0.99000001" stroke-linecap="square"></path>
            <path d="M25.2572511,120.457723 L30.9094156,110.686874" id="Line" stroke="#000000" stroke-width="0.99000001" stroke-linecap="square"></path>
            <path d="M36.8188312,120.47493 L42.4709957,110.704082" id="Line" stroke="#000000" stroke-width="0.99000001" stroke-linecap="square"></path>
            <path d="M36.5688312,120.22493 L31.1672255,110.887221" id="Line" stroke="#000000" stroke-width="0.99000001" stroke-linecap="square"></path>
            <path d="M28.3362414,244.246127 C28.3633409,244.730312 28.4775443,245.123465 28.678855,245.425597 C29.0621195,245.991126 29.7376614,246.273886 30.705501,246.273886 C31.1390932,246.273886 31.5339659,246.211912 31.8901308,246.08796 C32.5792327,245.847804 32.9237784,245.417853 32.9237784,244.798096 C32.9237784,244.333277 32.7786046,244.002099 32.4882528,243.804551 C32.1940295,243.610877 31.7333447,243.442383 31.1061847,243.299064 L29.9505899,243.037605 C29.195675,242.867172 28.6614355,242.67931 28.3478555,242.474015 C27.8058653,242.117655 27.5348742,241.585058 27.5348742,240.87621 C27.5348742,240.10926 27.8000583,239.479828 28.3304344,238.987895 C28.8608106,238.495963 29.6118429,238.25 30.5835539,238.25 C31.4778377,238.25 32.2375804,238.465944 32.8628048,238.897837 C33.4880292,239.329731 33.8006368,240.02017 33.8006368,240.969174 L32.7147261,240.969174 C32.6566557,240.512102 32.5327741,240.161557 32.3430775,239.917527 C31.9907839,239.472077 31.392668,239.249354 30.5487118,239.249354 C29.8673527,239.249354 29.3776332,239.392671 29.0795386,239.679309 C28.781444,239.965947 28.6323989,240.299062 28.6323989,240.678664 C28.6323989,241.097 28.8066074,241.403001 29.1550297,241.596675 C29.3834398,241.720627 29.9002585,241.875564 30.705501,242.061491 L31.9017449,242.334571 C32.4785773,242.466269 32.9237768,242.646384 33.2373569,242.874919 C33.7793471,243.273888 34.0503381,243.852966 34.0503381,244.612169 C34.0503381,245.5573 33.7067602,246.233213 33.0195941,246.639929 C32.3324279,247.046645 31.5339722,247.25 30.6242029,247.25 C29.5634507,247.25 28.7330567,246.97886 28.1329961,246.436572 C27.5329355,245.898157 27.2387167,245.168016 27.2503308,244.246127 L28.3362414,244.246127 Z M35.3743361,240.806488 L36.4370188,240.806488 L36.4370188,247.000161 L35.3743361,247.000161 L35.3743361,240.806488 Z M35.3743361,238.464977 L36.4370188,238.464977 L36.4370188,239.650258 L35.3743361,239.650258 L35.3743361,238.464977 Z" id="Si" fill="#000000"></path>
            <polygon id="N" fill="#000000" points="8.40500009 259.877503 9.7681837 259.877503 14.0723634 266.780432 14.0723634 259.877503 15.1687111 259.877503 15.1687111 268.39885 13.8751369 268.39885 9.50714854 261.501721 9.50714854 268.39885 8.40500009 268.39885"></polygon>
            <path d="M27.25,259.25 L31.1349706,259.25 C31.9029565,259.25 32.522038,259.463125 32.9922334,259.889381 C33.4624289,260.315636 33.6975231,260.914507 33.6975231,261.686011 C33.6975231,262.349504 33.4878974,262.927159 33.0686398,263.418993 C32.6493822,263.910826 32.0048322,264.156739 31.1349706,264.156739 L28.4196054,264.156739 L28.4196054,267.75 L27.25,267.75 L27.25,259.25 Z M31.8108732,260.418822 C31.5522657,260.299239 31.1976653,260.239449 30.7470613,260.239449 L28.4196054,260.239449 L28.4196054,263.184649 L30.7470613,263.184649 C31.2721129,263.184649 31.6982211,263.074712 32.0253988,262.854833 C32.3525765,262.634955 32.5161629,262.24728 32.5161629,261.691797 C32.5161629,261.066879 32.2810687,260.642558 31.8108732,260.418822 L31.8108732,260.418822 Z" id="P" fill="#000000"></path>
            <path d="M15.1148048,281.127698 C15.6794171,281.881803 15.9617189,282.846657 15.9617189,284.022288 C15.9617189,285.294599 15.638812,286.352264 14.9929884,287.195315 C14.2350159,288.18532 13.1541478,288.680315 11.7503517,288.680315 C10.4393686,288.680315 9.40877339,288.247195 8.65853526,287.38094 C7.98950847,286.545624 7.65500009,285.489892 7.65500009,284.213714 C7.65500009,283.061286 7.94116911,282.075163 8.51351572,281.255315 C9.24828503,280.203435 10.3349539,279.677503 11.7735548,279.677503 C13.2778983,279.677503 14.3916372,280.160896 15.1148048,281.127698 L15.1148048,281.127698 Z M14.0967677,286.554329 C14.5511645,285.82536 14.7783595,284.987156 14.7783595,284.03969 C14.7783595,283.038084 14.5163602,282.231783 13.9923537,281.620764 C13.4683471,281.009746 12.7519578,280.704241 11.8431642,280.704241 C10.961441,280.704241 10.2421513,281.006845 9.68527355,281.612063 C9.12839576,282.217281 8.84996104,283.109626 8.84996104,284.289124 C8.84996104,285.232722 9.08875748,286.028388 9.56635753,286.676145 C10.0439576,287.323902 10.8183541,287.647776 11.8895704,287.647776 C12.9066459,287.647776 13.6423709,287.283297 14.0967677,286.554329 L14.0967677,286.554329 Z" id="O" fill="#000000"></path>
            <path d="M28.3203252,285.746127 C28.3470276,286.230312 28.4595576,286.623465 28.6579185,286.925597 C29.0355672,287.491126 29.7012107,287.773886 30.654869,287.773886 C31.0821079,287.773886 31.4711947,287.711912 31.8221409,287.58796 C32.5011456,287.347804 32.8406429,286.917853 32.8406429,286.298096 C32.8406429,285.833277 32.6975963,285.502099 32.4114988,285.304551 C32.1215867,285.110877 31.6676521,284.942383 31.0496816,284.799064 L29.9110193,284.537605 C29.1671658,284.367172 28.6407543,284.17931 28.331769,283.974015 C27.7977204,283.617655 27.5307001,283.085058 27.5307001,282.37621 C27.5307001,281.60926 27.7919985,280.979828 28.3146033,280.487895 C28.837208,279.995963 29.5772357,279.75 30.5347087,279.75 C31.4158889,279.75 32.1644994,279.965944 32.7805627,280.397837 C33.396626,280.829731 33.704653,281.52017 33.704653,282.469174 L32.6346537,282.469174 C32.5774342,282.012102 32.4553678,281.661557 32.2684508,281.417527 C31.9213191,280.972077 31.3319672,280.749354 30.5003771,280.749354 C29.8290017,280.749354 29.3464578,280.892671 29.0527311,281.179309 C28.7590043,281.465947 28.6121432,281.799062 28.6121432,282.178664 C28.6121432,282.597 28.7837991,282.903001 29.1271161,283.096675 C29.3521794,283.220627 29.8614253,283.375564 30.654869,283.561491 L31.8335848,283.834571 C32.4019651,283.966269 32.8406413,284.146384 33.1496266,284.374919 C33.6836753,284.773888 33.9506956,285.352966 33.9506956,286.112169 C33.9506956,287.0573 33.612152,287.733213 32.9350546,288.139929 C32.2579572,288.546645 31.4712009,288.75 30.5747621,288.75 C29.5295526,288.75 28.7113261,288.47886 28.1200579,287.936572 C27.5287898,287.398157 27.238882,286.668016 27.2503259,285.746127 L28.3203252,285.746127 Z" id="S" fill="#000000"></path>
            <polygon id="F" fill="#000000" points="8.65500009 301.952503 14.5659962 301.952503 14.5659962 302.996644 9.80935557 302.996644 9.80935557 305.583792 13.9917189 305.583792 13.9917189 306.598929 9.80935557 306.598929 9.80935557 310.473851 8.65500009 310.473851"></polygon>
            <path d="M10.6360353,325.354788 C11.1233033,325.354788 11.5022839,325.287113 11.7729884,325.151761 C12.1983812,324.939065 12.4110744,324.556217 12.4110744,324.003206 C12.4110744,323.446328 12.1848461,323.071215 11.7323829,322.877855 C11.4771473,322.769573 11.0981667,322.715433 10.5954298,322.715433 L8.53615245,322.715433 L8.53615245,325.354788 L10.6360353,325.354788 Z M11.0246876,329.287718 C11.7323865,329.287718 12.2370494,329.082759 12.5386915,328.672835 C12.7281847,328.413732 12.8229298,328.100493 12.8229298,327.733109 C12.8229298,327.114356 12.5464287,326.692836 11.9934181,326.468538 C11.6995104,326.348655 11.3108619,326.288714 10.8274611,326.288714 L8.53615245,326.288714 L8.53615245,329.287718 L11.0246876,329.287718 Z M7.40500009,321.752503 L11.0652931,321.752503 C12.0630325,321.752503 12.7726543,322.050274 13.1941798,322.645823 C13.4416811,322.997739 13.5654298,323.40379 13.5654298,323.863987 C13.5654298,324.401529 13.4126775,324.842384 13.1071681,325.186566 C12.9486126,325.368324 12.7204508,325.534612 12.4226759,325.685433 C12.8596703,325.851723 13.1864444,326.039279 13.403008,326.248109 C13.7858614,326.61936 13.9772853,327.131758 13.9772853,327.785316 C13.9772853,328.334459 13.8051972,328.831388 13.4610158,329.276116 C12.9466773,329.941276 12.1287753,330.273851 11.0072853,330.273851 L7.40500009,330.273851 L7.40500009,321.752503 Z M15.2476564,324.061214 L16.23959,324.061214 L16.23959,325.134359 C16.3208014,324.925529 16.5199595,324.671264 16.8370705,324.371556 C17.1541815,324.071847 17.519627,323.921995 17.9334182,323.921995 C17.9527542,323.921995 17.985625,323.923929 18.0320314,323.927796 C18.0784379,323.931663 18.1577145,323.939398 18.2698635,323.950999 L18.2698635,325.053148 C18.2079882,325.041546 18.1509477,325.033812 18.0987404,325.029945 C18.0465331,325.026077 17.9894927,325.024144 17.9276174,325.024144 C17.4016772,325.024144 16.9975602,325.193332 16.7152541,325.531712 C16.432948,325.870093 16.2917971,326.259708 16.2917971,326.70057 L16.2917971,330.273851 L15.2476564,330.273851 L15.2476564,324.061214 Z" id="Br" fill="#000000"></path>
            <polygon id="H" fill="#000000" points="8.15500009 342.552503 9.32095713 342.552503 9.32095713 346.073578 13.7527541 346.073578 13.7527541 342.552503 14.9187111 342.552503 14.9187111 351.073851 13.7527541 351.073851 13.7527541 347.088714 9.32095713 347.088714 9.32095713 351.073851 8.15500009 351.073851"></polygon>
            <polygon id="I" fill="#000000" points="32 321.75 33.25 321.75 33.25 330.25 32 330.25"></polygon>
            <path d="M33.7676247,302.605204 C34.3661454,303.175342 34.698436,303.823041 34.7645065,304.548319 L33.6335412,304.548319 C33.5052868,303.997573 33.2497534,303.561249 32.8669333,303.239334 C32.4841132,302.917419 31.9468129,302.756464 31.2550163,302.756464 C30.4116462,302.756464 29.7305476,303.052195 29.2117001,303.643665 C28.6928526,304.235135 28.4334328,305.14172 28.4334328,306.363445 C28.4334328,307.364097 28.6675908,308.175659 29.1359138,308.798158 C29.6042368,309.420656 30.3028244,309.7319 31.2316974,309.7319 C32.086727,309.7319 32.7377056,309.404173 33.1846529,308.748707 C33.4217293,308.403521 33.5985623,307.949744 33.7151573,307.387363 L34.8461226,307.387363 C34.7450736,308.287173 34.4108398,309.041529 33.8434111,309.650452 C33.1632739,310.383488 32.2460741,310.75 31.0917842,310.75 C30.0968407,310.75 29.2612561,310.449421 28.5850054,309.848255 C27.6949974,309.053163 27.25,307.825639 27.25,306.165643 C27.25,304.905133 27.5842338,303.87153 28.2527115,303.064803 C28.9756001,302.188263 29.972472,301.75 31.2433568,301.75 C32.3276898,301.75 33.169104,302.035065 33.7676247,302.605204 L33.7676247,302.605204 Z M36.1461497,301.982708 L37.1954989,301.982708 L37.1954989,310.528927 L36.1461497,310.528927 L36.1461497,301.982708 Z" id="Cl" fill="#000000"></path>
            <polygon id="Positive" fill="#000000" points="6.59765632 221.58222 6.59765632 219.8954 10.9753571 219.8954 10.9753571 215.487577 12.6922994 215.487577 12.6922994 219.8954 17.0700002 219.8954 17.0700002 221.58222 12.6922994 221.58222 12.6922994 225.980002 10.9753571 225.980002 10.9753571 221.58222"></polygon>
            <polygon id="Negative" fill="#000000" points="28.75 219.75 39.25 219.75 39.25 221.5 28.75 221.5"></polygon>
            <polygon id="Polygon-2" stroke="#000000" stroke-width="0.75" points="33.375 193.530067 39.75 197.140033 39.75 204.359967 33.375 207.969933 27 204.359967 27 197.140033"></polygon>
            <path d="M38.125,197.451058 L38.125,203.451058" id="Line" stroke="#000000" stroke-width="0.75" stroke-linecap="square"></path>
            <path d="M33.5858896,195.29332 L28.3067986,198.144846" id="Line" stroke="#000000" stroke-width="0.75" stroke-linecap="square"></path>
            <path d="M28.5168712,203.419841 L33.7066173,206.43091" id="Line" stroke="#000000" stroke-width="0.75" stroke-linecap="square"></path>
            <path d="M27.402495,350.172043 L28.6735529,350.172043 L28.6735529,351.5 L27.402495,351.5 L27.402495,350.172043 Z M26.0292415,342.83955 C26.5487385,342.279847 27.2619715,342 28.1689621,342 C29.0078219,342 29.6795384,342.239413 30.1841317,342.718246 C30.6887251,343.197079 30.941018,343.808912 30.941018,344.553763 C30.941018,345.004931 30.8484041,345.370966 30.6631737,345.651882 C30.4779432,345.932797 30.1042942,346.345651 29.5422156,346.890457 C29.1334311,347.286292 28.8683639,347.62147 28.747006,347.896001 C28.6256481,348.170532 28.5649701,348.575938 28.5649701,349.112231 L27.4280439,349.112231 C27.4280439,348.503581 27.5004317,348.013051 27.6452096,347.640625 C27.7899874,347.268199 28.1072164,346.841512 28.5969062,346.360551 L29.1078842,345.856183 C29.2611784,345.711469 29.3846635,345.560373 29.4783433,345.40289 C29.6486702,345.126231 29.7338323,344.838935 29.7338323,344.540995 C29.7338323,344.123878 29.6092827,343.762098 29.3601796,343.455645 C29.1110766,343.149192 28.6991047,342.995968 28.1242515,342.995968 C27.4131368,342.995968 26.9213254,343.259854 26.6488024,343.787634 C26.4955082,344.081319 26.408217,344.504814 26.3869261,345.058132 L25.25,345.058132 C25.25,344.138772 25.5097446,343.399252 26.0292415,342.83955 L26.0292415,342.83955 Z M32.6464072,350.108199 L33.9813373,350.108199 L33.9813373,351.5 L32.6464072,351.5 L32.6464072,350.108199 Z M36.2807385,350.108199 L37.6156687,350.108199 L37.6156687,351.5 L36.2807385,351.5 L36.2807385,350.108199 Z M39.9150699,350.108199 L41.25,350.108199 L41.25,351.5 L39.9150699,351.5 L39.9150699,350.108199 Z" id="?..." fill="#000000"></path>
            <polygon id="Polygon" stroke="#000000" stroke-width="0.75" points="12.875 193.5 17.8591757 196.229699 19.0901654 202.363277 15.6410088 207.282024 10.1089912 207.282024 6.65983456 202.363277 7.8908243 196.229699"></polygon>
            <path d="M38.75,46.375 L28.375,58.625" id="Line" stroke="#000000" stroke-width="0.75" stroke-linecap="square"></path>
        </g>
    </g>
</svg>