
<?xml version="1.0" encoding="UTF-8" standalone="no"?>
<svg width="28px" height="70px" viewBox="0 0 28 70" version="1.1" xmlns="http://www.w3.org/2000/svg" xmlns:xlink="http://www.w3.org/1999/xlink">
    <!-- Generator: Sketch 39.1 (31720) - http://www.bohemiancoding.com/sketch -->
    <title>ESRButtons</title>
    <desc>Created with Sketch.</desc>
    <defs></defs>
    <g id="Page-1" stroke="none" stroke-width="1" fill="none" fill-rule="evenodd">
        <g id="ESRButtons">
            <polygon id="Triangle" fill="#D0011B" transform="translate(10.797692, 10.014244) rotate(217.000000) translate(-10.797692, -10.014244) " points="10.797692 3 14.5953841 17.0284874 7 17.0284874"></polygon>
            <path d="M5.36031606,17.8147246 C5.50991648,17.8965091 5.68707222,17.9374007 5.8917886,17.9374007 C6.14112264,17.9374007 6.38257935,17.8974178 6.61616598,17.8174508 C7.00985132,17.6847783 7.20669103,17.4675984 7.20669103,17.1659048 L7.20669103,16.7706154 C7.12008026,16.8087815 7.00853775,16.840586 6.87206017,16.8660301 C6.73558259,16.8914741 6.60173158,16.9096482 6.47050314,16.9205528 L6.04138827,16.9587186 C5.78418052,16.9823452 5.59127761,17.019602 5.46267373,17.0704901 C5.24483451,17.1559094 5.13591654,17.2922147 5.13591654,17.4794102 C5.13591654,17.6211698 5.21071563,17.7329402 5.36031606,17.8147246 L5.36031606,17.8147246 Z M6.852376,16.4870975 C7.01509927,16.472558 7.12401725,16.4253055 7.17913319,16.3453385 C7.21062802,16.3017202 7.2263752,16.2390197 7.2263752,16.1572353 C7.2263752,15.9900316 7.14042186,15.8687198 6.9685126,15.7932964 C6.79660333,15.717873 6.55055369,15.6801619 6.23035629,15.6801619 C5.86029208,15.6801619 5.59783913,15.7492232 5.44298956,15.887348 C5.35637879,15.9636802 5.29995141,16.0772679 5.27370572,16.2281148 L4.61231767,16.2281148 C4.62544051,15.8682633 4.79406653,15.6179159 5.11820079,15.4770649 C5.44233504,15.336214 5.8182989,15.2657895 6.24610362,15.2657895 C6.74214714,15.2657895 7.14501242,15.3312161 7.45471155,15.4620712 C7.76178611,15.5929263 7.91532108,15.7964755 7.91532108,16.0727251 L7.91532108,17.7547497 C7.91532108,17.8056378 7.93041213,17.8465294 7.96059467,17.8774257 C7.99077721,17.908322 8.05442205,17.92377 8.1515311,17.92377 C8.18302593,17.92377 8.21845708,17.9224069 8.25782561,17.9196808 C8.29719414,17.9169546 8.33918661,17.9128655 8.38380429,17.9074132 L8.38380429,18.269989 C8.27357239,18.2917982 8.18958745,18.3054287 8.13184693,18.310881 C8.07410642,18.3163333 7.99537053,18.3190594 7.89563692,18.3190594 C7.65155201,18.3190594 7.47439627,18.259085 7.36416437,18.1391346 C7.30642386,18.0755244 7.26574365,17.9855629 7.24212253,17.8692473 C7.09777124,18.0001024 6.89043341,18.1136902 6.62010282,18.210014 C6.34977222,18.3063379 6.05188812,18.3544991 5.72644158,18.3544991 C5.33538082,18.3544991 5.01584435,18.2722616 4.76782259,18.107784 C4.51980084,17.9433065 4.39579182,17.7374854 4.39579182,17.4903147 C4.39579182,17.2195174 4.51783244,17.0096072 4.76191734,16.8605778 C5.00600225,16.7115484 5.32619485,16.6197695 5.72250475,16.5852383 L6.852376,16.4870975 Z M9.02157133,14.2380371 L9.71051722,14.2380371 L9.71051722,15.6910664 C9.86536678,15.5511242 10.0503961,15.4443517 10.2656108,15.3707457 C10.4808254,15.2971397 10.7144085,15.2603373 10.9663671,15.2603373 C11.4912809,15.2603373 11.9171108,15.3852838 12.2438697,15.6351807 C12.5706285,15.8850775 12.7340054,16.2535563 12.7340054,16.7406279 C12.7340054,17.2022556 12.5725969,17.5857279 12.2497749,17.8910564 C11.9269529,18.1963849 11.4794707,18.3490469 10.9073146,18.3490469 C10.5871172,18.3490469 10.3167907,18.2954334 10.0963269,18.188205 C9.96509847,18.1245949 9.82468614,18.0228202 9.67508572,17.882878 L9.67508572,18.2563583 L9.02157133,18.2563583 L9.02157133,14.2380371 Z M11.7242076,17.5993601 C11.9144889,17.388538 12.0096281,17.1104751 12.0096281,16.7651631 C12.0096281,16.4580172 11.9144889,16.2035806 11.7242076,16.0018457 C11.5339264,15.8001108 11.2537579,15.6992448 10.8836936,15.6992448 C10.5608717,15.6992448 10.2780786,15.7819367 10.035306,15.947323 C9.79253337,16.1127093 9.67114888,16.3853199 9.67114888,16.7651631 C9.67114888,17.0395953 9.72101494,17.2622273 9.82074856,17.4330659 C10.007093,17.7547513 10.3548431,17.9155916 10.8640095,17.9155916 C11.2471965,17.9155916 11.5339264,17.8101821 11.7242076,17.5993601 L11.7242076,17.5993601 Z M13.9819817,17.3403774 C14.0029783,17.5039462 14.0620302,17.6293471 14.1591392,17.7165838 C14.3376099,17.8747004 14.6473044,17.9537575 15.088232,17.9537575 C15.3506888,17.9537575 15.5816474,17.9142289 15.7811147,17.8351706 C15.9805819,17.7561124 16.080314,17.6338919 16.080314,17.4685056 C16.080314,17.3431029 16.0002659,17.2476891 15.8401672,17.1822616 C15.737809,17.1422781 15.5357202,17.0959343 15.2338948,17.0432288 L14.6709276,16.945088 C14.3113617,16.8832953 14.0462842,16.8142339 13.8756872,16.7379018 C13.5712372,16.6052293 13.4190145,16.4216714 13.4190145,16.1872228 C13.4190145,15.9109732 13.5627075,15.6874324 13.8500978,15.5165939 C14.1374881,15.3457553 14.52395,15.2603373 15.0094953,15.2603373 C15.644641,15.2603373 16.1026214,15.389373 16.3834502,15.6474483 C16.5592963,15.8110171 16.6445935,15.9873053 16.6393444,16.1763182 L15.9700827,16.1763182 C15.9569598,16.0654549 15.9005325,15.964589 15.8007988,15.8737174 C15.6380756,15.7446797 15.3559387,15.6801619 14.9543796,15.6801619 C14.6866736,15.6801619 14.4839287,15.7156013 14.3461388,15.7864811 C14.208349,15.8573609 14.1394551,15.9509573 14.1394551,16.0672729 C14.1394551,16.1944931 14.2300013,16.2962677 14.4110966,16.3725999 C14.5160793,16.4180357 14.6709266,16.4580185 14.8756429,16.4925497 L15.3441261,16.5716076 C15.8532925,16.6570269 16.1944813,16.7397188 16.3677029,16.8196858 C16.6432826,16.9450886 16.7810704,17.142277 16.7810704,17.4112568 C16.7810704,17.6711496 16.6386897,17.895599 16.353924,18.0846119 C16.0691582,18.2736248 15.6354547,18.3681298 15.0528005,18.3681298 C14.4255285,18.3681298 13.9813269,18.2695356 13.7201823,18.0723443 C13.4590377,17.8751529 13.3192815,17.6311664 13.3009095,17.3403774 L13.9819817,17.3403774 Z" id="abs" fill="#000000"></path>
            <polygon id="Triangle" fill="#4A90E2" transform="translate(10.797692, 33.014244) rotate(217.000000) translate(-10.797692, -33.014244) " points="10.797692 26 14.5953841 40.0284874 7 40.0284874"></polygon>
            <path d="M13.578125,41.0175781 C13.7513029,40.6647118 13.8378906,40.2721376 13.8378906,39.8398438 C13.8378906,39.4492168 13.7753912,39.1315116 13.6503906,38.8867188 C13.452473,38.5013002 13.1113305,38.3085938 12.6269531,38.3085938 C12.1972635,38.3085938 11.8847666,38.4726546 11.6894531,38.8007812 C11.4941396,39.1289079 11.3964844,39.5247373 11.3964844,39.9882812 C11.3964844,40.433596 11.4941396,40.804686 11.6894531,41.1015625 C11.8847666,41.398439 12.1946593,41.546875 12.6191406,41.546875 C13.0852888,41.546875 13.4049471,41.3704445 13.578125,41.0175781 L13.578125,41.0175781 Z M14.0136719,38.234375 C14.3860696,38.5937518 14.5722656,39.1223923 14.5722656,39.8203125 C14.5722656,40.494795 14.4082048,41.0520811 14.0800781,41.4921875 C13.7519515,41.9322939 13.242842,42.1523438 12.5527344,42.1523438 C11.9772107,42.1523438 11.520184,41.9576842 11.1816406,41.5683594 C10.8430973,41.1790345 10.6738281,40.6562533 10.6738281,40 C10.6738281,39.2968715 10.8522118,38.7369812 11.2089844,38.3203125 C11.565757,37.9036438 12.0449189,37.6953125 12.6464844,37.6953125 C13.1855496,37.6953125 13.6412742,37.8749982 14.0136719,38.234375 L14.0136719,38.234375 Z M15.4277344,37.8164062 L16.0957031,37.8164062 L16.0957031,38.5390625 C16.1503909,38.3984368 16.2845041,38.2272146 16.4980469,38.0253906 C16.7115896,37.8235667 16.9576809,37.7226562 17.2363281,37.7226562 C17.249349,37.7226562 17.2714842,37.7239583 17.3027344,37.7265625 C17.3339845,37.7291667 17.3873694,37.734375 17.4628906,37.7421875 L17.4628906,38.484375 C17.4212237,38.4765625 17.3828127,38.4713542 17.3476562,38.46875 C17.3124998,38.4661458 17.2740888,38.4648438 17.2324219,38.4648438 C16.8782534,38.4648438 16.6061207,38.5787749 16.4160156,38.8066406 C16.2259105,39.0345063 16.1308594,39.2968735 16.1308594,39.59375 L16.1308594,42 L15.4277344,42 L15.4277344,37.8164062 Z" id="or" fill="#000000"></path>
            <polygon id="Triangle" fill="#417505" transform="translate(10.797692, 57.014244) rotate(217.000000) translate(-10.797692, -57.014244) " points="10.797692 50 14.5953841 64.0284874 7 64.0284874"></polygon>
            <path d="M15.6289062,62.0664062 C15.7825529,61.889322 15.859375,61.6927094 15.859375,61.4765625 C15.859375,61.3072908 15.803386,61.1614589 15.6914062,61.0390625 C15.5794265,60.9166661 15.4283864,60.8554688 15.2382812,60.8554688 C14.9492173,60.8554688 14.7486985,60.951822 14.6367188,61.1445312 C14.5794268,61.2434901 14.5507812,61.3515619 14.5507812,61.46875 C14.5507812,61.627605 14.5944006,61.7799472 14.6816406,61.9257812 C14.7688806,62.0716153 14.9140615,62.2604155 15.1171875,62.4921875 C15.3645846,62.3177075 15.5351558,62.1757818 15.6289062,62.0664062 L15.6289062,62.0664062 Z M15.6835938,65.3164062 C15.8919281,65.1835931 16.0520828,65.0351571 16.1640625,64.8710938 L14.8671875,63.2890625 C14.4999982,63.5338554 14.2604172,63.7213535 14.1484375,63.8515625 C13.9765616,64.046876 13.890625,64.2851548 13.890625,64.5664062 C13.890625,64.8710953 14.001952,65.1054679 14.2246094,65.2695312 C14.4472667,65.4335946 14.6848946,65.515625 14.9375,65.515625 C15.2265639,65.515625 15.4752594,65.4492194 15.6835938,65.3164062 L15.6835938,65.3164062 Z M13.9902344,62.1054688 C13.9082027,61.9153636 13.8671875,61.7317717 13.8671875,61.5546875 C13.8671875,61.184894 13.9921862,60.8782564 14.2421875,60.6347656 C14.4921888,60.3912748 14.8268208,60.2695312 15.2460938,60.2695312 C15.6445332,60.2695312 15.955728,60.3828114 16.1796875,60.609375 C16.403647,60.8359386 16.515625,61.1067693 16.515625,61.421875 C16.515625,61.7890643 16.3997407,62.1106757 16.1679688,62.3867188 C16.0325514,62.5481779 15.8059912,62.7343739 15.4882812,62.9453125 L16.5351562,64.1953125 C16.6054691,63.9869781 16.6542967,63.8313807 16.6816406,63.7285156 C16.7089845,63.6256505 16.736979,63.4817718 16.765625,63.296875 L17.4335938,63.296875 C17.3893227,63.6640643 17.3007819,64.0162744 17.1679688,64.3535156 C17.0351556,64.6907569 16.96875,64.8268232 16.96875,64.7617188 L17.9882812,66 L17.0820312,66 L16.5429688,65.34375 C16.329426,65.575522 16.1341155,65.7447911 15.9570312,65.8515625 C15.6471339,66.0390634 15.2903666,66.1328125 14.8867188,66.1328125 C14.2903616,66.1328125 13.8567722,65.9720068 13.5859375,65.6503906 C13.3151028,65.3287744 13.1796875,64.9661479 13.1796875,64.5625 C13.1796875,64.127602 13.3111966,63.7643244 13.5742188,63.4726562 C13.7356779,63.295572 14.0364561,63.0742201 14.4765625,62.8085938 C14.2343738,62.5299465 14.072266,62.2955739 13.9902344,62.1054688 L13.9902344,62.1054688 Z" id="and" fill="#000000"></path>
        </g>
    </g>
</svg>